# xmcd
#
# Track frame offsets:
#	150
#	13313
#	25993
#	38964
#	53238
#	67716
#	105010
#	117462
#	129347
#	142996
#	154721
#	165760
#	213544
#	224832
#	238993
#
# Disc length: 3374 seconds
#
# Revision: 1
# Processed by: cddbd v1.5.2PL0 Copyright (c) Steve Scherf et al.
# Submitted via: audiograbber 1.83.01
#
DISCID=ce0d2c0f
DTITLE=Die Donautaler - Casanovas
DYEAR=1997
DGENRE=Volkstümliche Musik
TTITLE0=Die Donautaler -  A Kerige Musi
TTITLE1=Die Donautaler - Edith
TTITLE2=Die Donautaler - Wir geben Gas
TTITLE3=Die Donautaler - Diesen Traum schenkt uns die Liebe
TTITLE4=Die Donautaler - Der Wasserfall
TTITLE5=Die Donautaler -  Witze 1
TTITLE6=Die Donautaler - Da is Power drin
TTITLE7=Die Donautaler -  Fensterln durchs Internet
TTITLE8=Die Donautaler - Alle Frauen wollen nur das Eine...
TTITLE9=Die Donautaler -  La Notte Passata
TTITLE10=Die Donautaler - Boarisch macht die Leut verrückt
TTITLE11=Die Donautaler - Witze 2
TTITLE12=Die Donautaler -  In Linz beginnt´s
TTITLE13=Die Donautaler -  A Hoamat haben
TTITLE14=Die Donautaler -  Urlaub in Spanien
EXTD=
EXTT0=
EXTT1=
EXTT2=
EXTT3=
EXTT4=
EXTT5=
EXTT6=
EXTT7=
EXTT8=
EXTT9=
EXTT10=
EXTT11=
EXTT12=
EXTT13=
EXTT14=
PLAYORDER=
